<svg width="640" height="640" viewBox="0 0 640 640" xmlns="http://www.w3.org/2000/svg"><path style="fill:#e9e9e9" d="m230 251.808-.08-.032-2.149-1.488-2.148-1.488-.012-50.819-.011-50.819 2.238 1.22 2.238 1.218.002 51.12.002 51.12z" transform="translate(-12.595 -28.34)"/><path style="fill:#e7e7e7" d="m319.139 302.694-.259-.027-44.059-25.493-44.059-25.494-.157-.163-.158-.163 9.425-5.385 9.425-5.384 4.166 2.445 4.167 2.444 34.785-20.214 34.785-20.215.415-.388.414-.39-3.676-2.213-3.676-2.214.221-.223.222-.222 7.801-4.48 7.802-4.48 1.508.862 1.508.863 42.752 24.64 42.753 24.64-.382.358-.382.357-52.541 30.283-52.541 30.282zm-15.83-21.424.109.01 4.29-2.422 4.292-2.422v-1.493l-4.21-2.431-4.209-2.432h-.484l-4.108 2.362-4.109 2.362v1.684l4.16 2.386 4.16 2.387zm42.48-.383.35-.087 20.046-11.52 20.047-11.52.004-.221.004-.221-5.84-3.497-5.84-3.497-.684-.354-.684-.354-20.116 11.394-20.116 11.393-.421.39-.421.392 6.66 3.894 6.662 3.895zm-31.607-6.018.422.011 4.138-2.301 4.138-2.3-.012-.82-.012-.819-4.308-2.459-4.308-2.459-4.316 2.459-4.317 2.459.005.8.005.8 4.071 2.31 4.071 2.308zm-23.462-1.035.32-.074 4.084-2.24 4.084-2.24-.084-.918-.084-.917-2.88-1.66-2.88-1.66-1.325-.741-1.325-.742-4.355 2.476-4.355 2.476v1.451l4.24 2.431 4.24 2.432zm34.251-5.12.331-.074 4.062-2.24 4.061-2.24.007-.847.007-.847-4.186-2.433-4.187-2.433h-.334l-4.287 2.437-4.286 2.437v1.451l4.24 2.431 4.24 2.432zm-22.096-1.646 1.285-.746 2.96-1.662 2.96-1.66-.001-.86-.001-.86-4.098-2.32-4.099-2.32-.46.013-.46.013-4 2.354-4 2.353-.084.754-.083.753 4.397 2.467 4.398 2.467zm-25.207-.536.388.028 4.164-2.32 4.164-2.32.008-.81.008-.81-4.313-2.495-4.312-2.495-4.34 2.505-4.34 2.505.092.761.093.762 4 2.33 4 2.332zm58.315-3.95.177-.1 4.08-2.3 4.08-2.3-.001-.86-.001-.862-4.098-2.32-4.099-2.32h-.704l-4.108 2.36-4.109 2.359-.083.76-.083.761 4.386 2.46 4.386 2.46zm-23.823-1.156.32.008 4.16-2.345 4.16-2.344.09-.773.09-.772-4.25-2.4-4.25-2.4h-.64l-4.08 2.344-4.08 2.344.009.856.009.856 4.071 2.31 4.071 2.309zm-23.56-.964.118.018 4.3-2.427 4.3-2.427-.1-.84-.098-.839-4-2.317-4-2.317-.371-.016-.372-.017-4.108 2.36-4.11 2.359-.093.764-.094.764 4.254 2.459 4.254 2.458zm-23.667-1.29.454.028 4.106-2.294 4.107-2.294v-1.735l-4.08-2.329-4.08-2.329-.339-.003-.339-.003-4.223 2.374-4.224 2.373.083.761.082.762 4 2.33 4 2.332zm81.787-2.668.32-.119 4-2.245 4-2.245v-1.731l-4.109-2.362-4.108-2.362-.372.017-.371.016-4 2.32-4 2.319v1.736l4.16 2.388 4.16 2.387zm-23.5-1.226.18-.078 4.22-2.352 4.22-2.353V249l-4.255-2.42-4.256-2.419h-.515l-4.118 2.32-4.12 2.32-.007.859-.008.859 4.24 2.419 4.24 2.418zm-24.042-1.226.459.028 4.101-2.272 4.102-2.273v-1.778l-4.08-2.329-4.08-2.329-.339-.003-.339-.003-4.223 2.374-4.224 2.373.083.761.082.762 4 2.33 4 2.332zm-23.17-1.026.33-.066 4.08-2.24 4.08-2.24-.089-.946-.089-.947-4-2.317-4-2.317-.29-.016-.291-.017-4.27 2.47-4.269 2.47v1.323l4.24 2.455 4.24 2.455zm81.386-2.797.435.011 4.125-2.32 4.126-2.32-.003-.8-.003-.8-4.317-2.459-4.316-2.459-4.317 2.46-4.316 2.458.005.8.005.8 4.07 2.31 4.072 2.308zm-23.634-.96.16.01 4.16-2.32 4.16-2.319v-1.83l-2.88-1.662-2.88-1.662-1.325-.742-1.325-.742-4.355 2.476-4.355 2.476v1.451l4.24 2.427 4.24 2.428zm-23.475-1.362.365-.067 4.04-2.24 4.041-2.24-.085-.946-.086-.947-4-2.317-4-2.317h-.64l-4 2.32-4 2.319v1.856l4 2.324 4 2.323zm-22.125-1.812 1.6-.888 2.81-1.564 2.81-1.563-.09-.786-.09-.787-4-2.317-4-2.317-.508-.016-.508-.017-4.047 2.32-4.046 2.32-.006.812-.006.811 4.24 2.44 4.24 2.441zm80-2.021.32-.074 4.084-2.24 4.084-2.24-.084-.918-.084-.917-2.88-1.66-2.88-1.66-1.325-.741-1.325-.742-4.355 2.476-4.355 2.476v1.451l4.24 2.431 4.24 2.432zm-22.411-1.487.971-.58 3.28-1.837 3.28-1.838-.001-.846-.001-.846-4.098-2.32-4.099-2.32-.46.017-.46.016-4 2.317-4 2.317-.084.787-.083.786 4.392 2.464 4.392 2.463zm-24.782-.768.487-.059 4.066-2.24 4.065-2.24.007-.843.007-.843-4.32-2.456-4.32-2.457-4.336 2.466-4.337 2.466.097.795.096.795 4 2.337 4 2.338zm-23.527-1.197.32.015 4.16-2.326 4.16-2.327.094-.796.094-.796-4.363-2.496-4.363-2.497-4.31 2.45-4.309 2.45.099.837.098.837 4 2.317 4 2.317zm82.875-3.314 1.285-.746 2.96-1.662 2.96-1.66-.001-.86-.001-.86-4.098-2.32-4.099-2.32h-.774l-4.073 2.367-4.074 2.368-.083.752-.083.753 4.397 2.467 4.398 2.466zm-24.955-.523.32.006 4.16-2.352 4.16-2.352.09-.764.09-.763-4.227-2.4-4.227-2.4-.216-.091-.215-.09-4.128 2.37-4.127 2.37-.083.92-.082.92 4.082 2.31 4.083 2.31zm-23.56-.963.118.018 4.3-2.427 4.3-2.427-.1-.84-.098-.839-4-2.317-4-2.317-.371-.016-.372-.017-4.108 2.36-4.11 2.359-.093.764-.094.764 4.254 2.459 4.254 2.458zm-23.671-1.29.448.028 4.112-2.304 4.111-2.303v-1.72l-4.273-2.429-4.274-2.43-4.366 2.473-4.366 2.473.08.761.079.762 4 2.33 4 2.332zm58.288-3.903.176-.069 4.224-2.374 4.223-2.374v-1.429l-4.21-2.431-4.209-2.432h-.607l-4.118 2.32-4.12 2.32-.007.842-.008.843 4.24 2.426 4.24 2.427zm-24.06-1.217.436.028 4.124-2.272 4.123-2.272v-1.779l-4.08-2.329-4.08-2.329-.339-.003-.339-.003-4.223 2.374-4.224 2.373.083.761.082.762 4 2.33 4 2.332zm-23.146-1.038.331-.054 4.073-2.24 4.074-2.24-.085-.94-.084-.94-4-2.332-4-2.331-.274-.009-.274-.008-4.286 2.437-4.286 2.437.003.683.003.683 4.237 2.454 4.237 2.455zm34.238-5.107.328-.067 4.08-2.24 4.081-2.24-.089-.946-.089-.947-4-2.317-4-2.317-.32-.008-.32-.008-4 2.334-4 2.334v1.844l4 2.323 4 2.323zm-23.615-1.19.394.003 4.176-2.32 4.177-2.32-.09-.785-.091-.784-4.31-2.486-4.31-2.487-.65.414-.65.414-3.6 2.042-3.6 2.042.002.815.002.815 4.078 2.317 4.079 2.316zm10.806-6.108.32.025 4.16-2.345 4.16-2.345.095-.785.095-.786-4.342-2.5-4.342-2.499-4.332 2.463-4.33 2.463.098.811.098.812 4 2.331 4 2.331z" transform="translate(-12.595 -28.34)"/><path style="fill:#d7d7d7" d="m230.08 149.25-.48.17-2.015-1.148-2.016-1.148.096-.084.095-.083 52.64-30.334 52.64-30.334.818-.312.819-.31 2.017 1.281 2.016 1.283-6.675 3.822-6.675 3.822-46.4 26.603-46.4 26.602z" transform="translate(-12.595 -28.34)"/><path style="fill:#cbcbcb" d="m162.86 298.872-.14-.008-2.479-1.352-2.479-1.352-.001-.222-.001-.222 3.707-2.098 3.708-2.098.372.01.373.01.59.447.59.447-1.368.864-1.368.863.86.451.862.451 1.442-.845 1.442-.845.827.541.826.542-.592.4-.591.4-3.22 1.812-3.22 1.812zm17.13-9.912h-.348l-.62-.474-.622-.474.38-.246.379-.246 17.61-10.08 17.609-10.08.01-.186.012-.186-.777-.416-.777-.416-18.108 10.433-18.108 10.433-.795-.363-.795-.362v-.416l20.597-11.74 20.597-11.741h.454l2.228 1.324 2.228 1.323-.1.299-.099.298-20.304 11.658-20.304 11.658zm183.587-105.299-.217-.019-2.474-1.341-2.474-1.341-.006-.203-.006-.202 3.722-2.118 3.722-2.117h.754l.621.5.621.5-.32.141-.32.141-1.107.675-1.106.675.87.456.87.455 1.4-.82 1.402-.822.836.38.835.382v.414l-3.703 2.141-3.703 2.142zm17.093-9.911-.35-.01-.617-.467-.616-.466.136-.114.137-.114 17.834-10.21 17.834-10.209.006-.247.006-.247-.767-.35-.767-.349-18.142 10.455-18.141 10.454-.815-.534-.816-.534.924-.562.924-.562 19.79-11.28 19.789-11.28.712.324.711.325 1.867 1.194 1.867 1.194-.608.337-.608.337-19.97 11.462-19.97 11.463z" transform="translate(-12.595 -28.34)"/><path style="fill:#c5c5c5" d="m230.64 251.24-.56.303.013-51.132.014-51.131 53.22-30.48 53.221-30.48h.412v101.987l-7.44 4.267-7.44 4.268-2.24 1.183-2.24 1.183-33.76 19.444-33.76 19.444-9.44 5.42-9.44 5.42zm5.28-7.015 1.04-.627 47.6-27.272 47.6-27.271V95.286l-.72.457-.72.457-47.92 27.457-47.92 27.457v93.739z" transform="translate(-12.595 -28.34)"/><path style="fill:#c3c3c3" d="m345.79 280.887-.35.087-6.66-3.895-6.662-3.894.421-.391.421-.391 20.116-11.393 20.117-11.394.683.354.684.354 5.84 3.497 5.84 3.497-.004.22-.004.222-20.046 11.52-20.047 11.52z" transform="translate(-12.595 -28.34)"/><path style="fill:silver" d="m316.8 304.397-1.12.425-.96-.11-.96-.111L272 280.5l-41.76-24.1-.094-2.48-.094-2.48.414.159.414.16 43.36 25.033 43.36 25.033.758.48.759.48-.599.593-.598.593z" transform="translate(-12.595 -28.34)"/><path style="fill:#e1c56c" d="m246.473 382.692-.233-.029-73.822-42.62-73.822-42.62-.172-.172-.171-.172 11.155-6.46 11.155-6.459h.384l.087 6.8.086 6.799 64.633 37.495 64.633 37.496.807-.476.807-.476 37.76-21.994 37.76-21.994v-14.276l-62.56-36.302-62.56-36.303-1.826-1.04-1.827-1.04 13.347-7.73 13.346-7.728.094 12.705.094 12.704 2.146 1.44 2.146 1.44.16 2.36.16 2.362L272 280.495l41.76 24.093 1.046.122 1.047.123 1.031-.434 1.032-.433.642-.582.642-.581 52.578-30.309 52.578-30.309.412.158.412.158 12.755 7.403 12.755 7.403.557-.093.557-.094 38.242-22.24 38.243-22.24.016-4.4.015-4.4h.265l6.427 3.711 6.428 3.712v.502l-147.367 85.478-147.367 85.477Zm90.586-223.652h-.227l.304-.286.304-.286 19.2-11.114 19.2-11.115 1.44-.812 1.44-.812-.32.33-.32.33-20.397 11.882-20.397 11.883zm43.261-25.11-1.6.895.32-.33.32-.33 1.6-.895 1.6-.895-.32.33-.32.33zm3.36-1.93-.96.496v-.32l.96-.496.96-.496v.32zm1.92-1.12-.64.343v-.32l.64-.343.64-.343v.32zm1.92-1.12-.96.496v-.32l.96-.496.96-.496v.32zm1.92-1.12-.64.343v-.32l.64-.343.64-.343v.32zm1.92-1.12-.96.496v-.32l.96-.496.96-.496v.32zm1.694-.98-.574.218.395-.398.394-.397.18.179.179.179z" transform="translate(-12.595 -28.34)"/><path style="fill:#a9a9a9" d="m250.13 334.204-6.13.147-3.2-.274-3.2-.275-3.523-.63-3.523-.63-3.837-1.155-3.837-1.156-2.72-1.155-2.72-1.155-1.44-.824-1.44-.823-2.24-1.641-2.24-1.642-2.08-2.256-2.08-2.256-1.198-2.234-1.198-2.235-.5-2.636-.5-2.636.386-2.45.385-2.448 1.272-2.552 1.273-2.552 1.957-2.202 1.957-2.202 2.534-1.91 2.534-1.909 3.549-1.713 3.549-1.713 4.16-1.267 4.16-1.266 3.988-.703 3.988-.704 4.604-.273 4.604-.273 4.665.295 4.665.296 3.703.664 3.703.663 3.775 1.12 3.775 1.118 2.624 1.123 2.623 1.123 1.762 1 1.761 1 2.24 1.68 2.24 1.678 1.937 2.18 1.937 2.179 1.294 2.414 1.294 2.414.417 2.566.417 2.565-.367 2.465-.366 2.465-1.283 2.55-1.282 2.55-1.93 2.13-1.93 2.13-2.055 1.555-2.054 1.556-1.623.956-1.623.957-2.951 1.244-2.952 1.244-3.434 1.01-3.435 1.01-4.355.778-4.355.777zm-1.01-2.854 6.72-.106 3.552-.636 3.552-.636 3.488-1.027 3.488-1.027 3.52-1.688 3.52-1.687 2.08-1.583 2.08-1.583 1.796-2.048 1.796-2.049.998-1.979.998-1.978.363-2.341.363-2.341-.392-2.24-.393-2.241-1.248-2.4-1.249-2.4-1.79-1.848-1.792-1.848-1.805-1.37-1.805-1.37-1.511-.87-1.512-.87-2.488-1.064-2.489-1.063-3.36-.992-3.36-.992-4-.704-4-.705-7.04.006-7.04.006-3.84.694-3.84.694-3.84 1.146-3.84 1.146-3.2 1.535-3.2 1.535-2.254 1.706-2.254 1.707-1.814 1.984-1.814 1.985-1.083 2.175-1.082 2.176-.364 2.267-.363 2.266.425 2.214.425 2.213 1.047 2.067 1.048 2.067 1.801 2.04 1.802 2.042 2.07 1.492 2.072 1.492 1.244.722 1.245.721 2.508 1.087 2.51 1.088 3.935 1.128 3.936 1.128 3.2.499 3.2.498 1.28.132 1.28.133zm-72.4-35.119-1.36.79v-2.893l2.95-1.704 2.95-1.704.25-.107.25-.106v2.872l-1.84 1.031-1.84 1.031zm274.228-77.233-5.988.147-3.2-.245-3.2-.246-3.693-.69-3.694-.689-3.711-1.092-3.712-1.092-2.835-1.21-2.835-1.21-1.6-.93-1.6-.93-2.155-1.592-2.155-1.592-2.037-2.294-2.037-2.293-1.162-2.24-1.162-2.24-.484-2.565-.484-2.566.457-2.601.457-2.601 1.176-2.335 1.176-2.334 1.805-2.05 1.805-2.049 2.72-2.08 2.72-2.082 3.52-1.695 3.52-1.696 4.32-1.308 4.32-1.308 3.68-.653 3.68-.654 4.716-.304 4.717-.304 4.563.29 4.564.29 3.922.67 3.922.67 4.238 1.296 4.238 1.296 3.525 1.701 3.524 1.701 2.556 1.901 2.555 1.901 2.116 2.375 2.117 2.374 1.147 2.28 1.148 2.28.432 2.52.433 2.52-.412 2.638-.411 2.637-1.264 2.483-1.264 2.482-2.501 2.58-2.501 2.58-2.72 1.793-2.72 1.794-2.88 1.265-2.88 1.264-3.84 1.164-3.84 1.163-4.412.784-4.412.783zm-1.028-2.851 6.56-.105 3.552-.635 3.552-.635 3.472-1.032 3.471-1.032 1.777-.774 1.776-.774 1.6-.818 1.6-.817 2.162-1.594 2.161-1.594 1.798-1.969 1.797-1.968 1.217-2.493 1.217-2.494.225-2.102.225-2.102-.372-2.252-.372-2.252-1.168-2.112-1.167-2.113-1.747-1.92-1.747-1.92-2.242-1.7-2.243-1.7-3.232-1.553-3.232-1.553-3.68-1.108-3.68-1.108-4-.731-4-.731-7.2.006-7.2.006-3.84.699-3.84.699-3.84 1.146-3.84 1.145-3.2 1.537-3.2 1.536-2.24 1.69-2.24 1.688-1.774 1.976-1.774 1.977-1.042 1.954-1.04 1.953-.434 2.487-.433 2.486.443 2.317.442 2.318.985 1.95.985 1.952 1.965 2.131 1.965 2.132 2.096 1.566 2.096 1.565 3.2 1.523 3.2 1.523 3.796 1.15 3.795 1.15 3.725.627 3.724.627 1.44.14 1.44.14zm-73.2-34.742-.72.378v-2.823l2.96-1.69 2.96-1.69.24-.129.24-.129v2.862l-2.48 1.422-2.48 1.422z" transform="translate(-12.595 -28.34)"/><path style="fill:#989898" d="m257.79 245.293-.35.115-3.914-2.304-3.914-2.304.09-.288.09-.287 35.284-20.294 35.284-20.294 3.834 2.317 3.833 2.316-.413.387-.414.388-34.53 20.067-34.53 20.066z" transform="translate(-12.595 -28.34)"/><path style="fill:#959595" d="m250.373 338.981-5.733.16-3.2-.248-3.2-.247-3.884-.684-3.885-.685-3.795-1.15-3.796-1.149-1.92-.798-1.92-.798-1.92-.966-1.92-.966-2.4-1.702-2.4-1.701-2.113-2.184-2.114-2.183-1.212-2.213-1.212-2.214-.592-1.946-.592-1.947.035-2.88.035-2.88.435 2.188.435 2.187 1.207 2.252 1.208 2.252 2.08 2.256 2.08 2.256 2.24 1.642 2.24 1.641 1.44.825 1.44.826 2.4 1.034 2.4 1.034 4 1.24 4 1.24 4.8.852 4.8.854 8-.002 8-.002 4.56-.836 4.561-.836 3.44-1.011 3.439-1.011 2.952-1.244 2.951-1.244 1.623-.957 1.623-.957 2.054-1.555 2.055-1.556 1.93-2.13 1.93-2.13 1.283-2.551 1.284-2.552.28-1.683.28-1.683.035 2.88.035 2.88-.605 1.92-.605 1.92-1.082 1.98-1.083 1.98-2.05 2.135-2.05 2.134-2.1 1.599-2.1 1.598-3.84 1.845-3.84 1.844-4 1.195-4 1.194-4.347.74-4.347.739zm200.82-115.203-5.593.163-3.52-.266-3.52-.266-3.569-.641-3.569-.641-3.95-1.177-3.952-1.178-3.372-1.5-3.371-1.5-2.389-1.574-2.388-1.574-2.467-2.494-2.467-2.494-1.348-2.308-1.348-2.308-.585-2.228-.585-2.229.037-2.741.038-2.742.444 2.239.444 2.238 1.167 2.242 1.167 2.241 2.036 2.293 2.037 2.294 2.155 1.592 2.155 1.592 1.6.93 1.6.93 2.835 1.21 2.835 1.21 3.725 1.098 3.725 1.098 4.64.847 4.64.847 8-.003 8-.003 4.726-.864 4.725-.863 3.755-1.147 3.754-1.148 2.88-1.263 2.88-1.264 2.72-1.793 2.72-1.794 2.501-2.58 2.5-2.58 1.265-2.482 1.264-2.483.442-2.637.443-2.638.033 2.654.032 2.653-.503 2.467-.503 2.466-1.303 2.4-1.304 2.4-1.935 2.08-1.935 2.08-2.004 1.52-2.004 1.52-1.534.893-1.535.894-2.72 1.187-2.72 1.188-3.84 1.152-3.84 1.152-4.327.735-4.327.735zm41.82-30.605-.213.214v-.854l.213.214.214.213z" transform="translate(-12.595 -28.34)"/><path style="fill:#888" d="m175.12 296.945-.24-.015-6.32-3.7-6.32-3.7v-2.847l1.854 1.058 1.854 1.059 4.701 2.72 4.701 2.72.005 1.36.005 1.36zm200.64-115.21-.24-.026-6.32-3.72-6.32-3.721v-2.801l.261.106.262.107 6.298 3.673 6.299 3.674v2.733z" transform="translate(-12.595 -28.34)"/><path style="fill:#797979" d="m175.171 294.065-.291-.015-6.357-3.722-6.358-3.722.598-.44.597-.442 2.758-1.582 2.757-1.582 6.443 3.758 6.442 3.758v.361l-3.149 1.822-3.148 1.821zm200.648-115.21-.299-.026-6.319-3.72-6.318-3.72.238-.226.239-.227 3.096-1.804 3.095-1.804 6.425 3.745 6.424 3.746v.473l-3.14 1.794-3.141 1.794z" transform="translate(-12.595 -28.34)"/><path style="fill:#957d41" d="M246.934 398.08h-.225l.085-7.73.086-7.731 147.49-85.55 147.491-85.549h.219l-.007 7.76-.007 7.76-6.153 3.566-6.153 3.566-.2-.32-.2-.32-134.84 78.31-134.84 78.31-.64.71-.64.713-5.62 3.252-5.62 3.253z" transform="translate(-12.595 -28.34)"/><path style="fill:#6d6d6d" d="m248.32 312.758-1.76.153-1.471-.262-1.471-.262-.929-.483-.929-.483-.793-.849-.792-.848v-2.497l.94-.981.94-.981 1.59-.473 1.591-.472h4.57l1.487.507 1.488.507 1.005 1.144 1.005 1.145-.17 1.26-.169 1.26-.712.758-.712.758-1.474.473-1.474.473zm-1.06-2.37 1.018.012.802-.305.801-.304.35-.656.352-.655-.331-.618-.331-.619-.697-.22-.697-.222-1.426.029-1.427.028-.597.54-.597.541v1.48l.88.478.88.477zm-62.564.631-.536-.02-4.212-2.46-4.211-2.459.272-.32.273-.32 2.047-1.093 2.048-1.094 4.131 2.345 4.132 2.344.415.32.414.32-2.118 1.23-2.118 1.228zm6.778-4.169-.274-.03-4.229-2.45-4.228-2.45-.012-.212-.01-.213 2.236-1.29 2.238-1.29 4.482 2.568 4.483 2.568-.002.214-.002.215-2.204 1.2-2.203 1.2zM449.12 197.546l-1.6.158-1.695-.292-1.695-.291-.865-.45-.865-.45-.784-.84-.784-.839v-2.218l.642-.86.642-.86 1.262-.662 1.262-.662h6.72l1.6.8 1.6.8.563 1.202.564 1.202-.445 1.064-.444 1.065-.881.692-.88.693-1.159.295-1.158.296zm-.547-2.463 1.373-.127.627-.568.627-.567v-1.166l-.8-.525-.8-.524h-3.228l-.626.567-.626.566v1.532l1.04.47 1.04.469zm-63.199.724-.574-.032-3.995-2.352-3.994-2.351-.089-.266-.089-.266 2.104-1.21 2.103-1.21.38.1.38.1 4.232 2.4 4.231 2.4.008.172.008.172-2.066 1.188-2.065 1.188zm6.992-4.128-.206-.001-4.287-2.479-4.287-2.479.08-.32.079-.32 2.127-1.171 2.128-1.171 4.305 2.485 4.304 2.485.092.286.093.286-2.11 1.2-2.111 1.2z" transform="translate(-12.595 -28.34)"/><path style="fill:#866f4a" d="M276.906 396.16h-1.043l-.332-.619-.331-.619v-1.76l.643-1.328.643-1.328.717-.662.717-.662 5.28-3.114 5.28-3.115.925-.01.926-.01.46.614.46.613-.15 1.396-.15 1.396-.93 1.324-.93 1.324-5.57 3.28-5.571 3.28zm108.068-61.575-.814.142-.524-.32-.525-.319-.204-.816-.205-.817.387-1.291.387-1.292 1.142-1.233 1.142-1.232 5.268-3.064 5.268-3.063h1.656l.384.384.384.384v3l-1.04 1.519-1.04 1.519-5.426 3.178-5.425 3.178zm116.237-69-1.028.015-.332-.619-.331-.619v-1.988l.64-1.255.64-1.255.705-.656.704-.656 5.135-3.013 5.136-3.014.852-.21.853-.21.704.704.705.705-.17 1.275-.172 1.275-.906 1.443-.906 1.443-5.6 3.31-5.6 3.31z" transform="translate(-12.595 -28.34)"/><path style="fill:#656565" d="m166.017 295.029-.097-.012-.775-.43-.776-.429 1.378-.87 1.379-.87.757.405.757.405-.002.186-.002.186-1.26.72-1.262.72zM178.194 288h-.152l-.62-.458-.622-.459.32-.288.32-.289 17.703-10.175 17.702-10.175.778.416.777.416-.011.186-.011.186-18.016 10.32L178.346 288Zm188.463-108.171-.097-.012-.742-.411-.741-.412.421-.337.422-.337 1.043-.53 1.043-.53.637.342.637.34-.002.23-.002.228-1.26.72-1.262.72zm12.508-7.205-.445.158-.617-.468-.616-.467.145-.146.145-.145 17.865-10.294 17.865-10.294.766.349.767.35-.006.246-.006.247-17.71 10.153-17.708 10.153z" transform="translate(-12.595 -28.34)"/><path style="fill:#816d3c" d="m246.64 398.397-.08-.003-74.24-42.83-74.24-42.83-.086-7.727-.085-7.727h.439l74.186 42.792 74.186 42.791V398.4z" transform="translate(-12.595 -28.34)"/><path style="fill:#65625e" d="M303.229 281.28h-.189v-1.463l4.313-2.469 4.313-2.468H312v1.556l-4.291 2.422-4.291 2.422zm11.033-6.4h-.342v-1.214l4.187-2.433 4.186-2.433h.587v1.478l-4.138 2.301-4.138 2.301zm-23.46-1.013-.242.106v-1.575l4.08-2.33 4.08-2.332.24-.127.24-.127-.007.9-.007.898-4.07 2.24-4.07 2.24zm34.256-5.12-.258.106v-1.565l4.08-2.332 4.08-2.332.24-.13.24-.132-.007.9-.007.898-4.055 2.24-4.054 2.24zm-22.284-1.62-1.385.804.105-.906.106-.905 4-2.332 4-2.331.24-.009.24-.009v1.56l-2.96 1.66-2.96 1.662zm-24.728-.62-.286.106v-1.585l3.28-1.855 3.28-1.854 1.04-.611 1.04-.611-.006.911-.006.912-4.028 2.24-4.029 2.24zm57.85-3.872-.265.153.104-.879.105-.879 4-2.342 4-2.343.24-.012.24-.013v1.563l-4.08 2.3-4.08 2.3zm-23.656-1.198-.24.003.005-.72.005-.72 4.185-2.4 4.184-2.4.316-.115.315-.115-.105.887-.104.887-4.16 2.345-4.16 2.345zm-23.385-1.042-.264.153.104-.867.105-.868 4-2.353 4-2.354.24-.013.24-.013v1.563l-4.08 2.3-4.08 2.3zm-23.682-1.195h-.213l.009-.72.009-.72 4.31-2.463 4.312-2.464v1.779l-4.107 2.294-4.107 2.294zm81.467-2.653-.4.161v-1.52l4.284-2.474 4.283-2.474h.436l-.102.83-.101.83-4 2.243-4 2.242zm-23.5-1.24-.26.106v-1.573l4.26-2.44 4.261-2.44h.439v1.535l-4.22 2.353-4.22 2.352zm-23.722-1.227h-.218l.009-.72.009-.72 4.092-2.32 4.092-2.32h.437v1.535l-4.102 2.273-4.101 2.272zm-23.322-1.013-.256.106v-1.565l4.08-2.332 4.08-2.332.24-.13.24-.132-.002.9-.002.898-4.061 2.24-4.062 2.24zm81.378-2.827h-.354v-1.231l4.18-2.424 4.18-2.425h.6v1.44l-4.126 2.32-4.125 2.32zm-20.914-2.432-2.8 1.524v-1.604l4.07-2.344 4.07-2.344.274-.115.275-.115-.104.895-.105.895-1.44.842-1.44.841zm-26.194.139-.286.106v-1.53l3.28-1.889 3.28-1.888 1.04-.605 1.04-.604-.006.911-.006.912-4.028 2.24-4.029 2.24zm-22.312-1.779-1.705.962.105-.878.106-.877 4.073-2.368 4.074-2.367h.653l-.001.72-.001.72-2.799 1.563-2.799 1.564zm80.189-2.061-.243.106v-1.575l4.08-2.33 4.08-2.332.24-.127.24-.127-.007.9-.007.898-4.07 2.24-4.07 2.24zm-22.588-1.461-1.066.637.106-.905.105-.906 4-2.331 4-2.331.24-.005.24-.005v1.532L350 240.17l-3.28 1.837zm-24.437-.78-.258.107v-1.565l4.08-2.332 4.08-2.332.24-.13.24-.132-.007.9-.007.898-4.055 2.24-4.054 2.24zm-23.698-1.227h-.24l.009-.72.009-.72 4.208-2.4 4.209-2.4.287-.114.286-.115-.104.907-.105.907-4.16 2.326-4.16 2.327zm82.694-3.273-1.385.805.105-.912.106-.912 4-2.317 4-2.317.24-.016.24-.017v1.56l-2.96 1.66-2.96 1.662zm-24.774-.57-.24.004.006-.72.006-.72 4.298-2.48 4.299-2.48h.394l-.102.844-.1.843-4.16 2.352-4.16 2.352zm-23.385-1.04-.264.152.104-.879.105-.879 4-2.342 4-2.343.24-.012.24-.013v1.563l-4.08 2.3-4.08 2.3zm-23.686-1.196h-.209v-1.44l2.96-1.676 2.96-1.676 1.36-.822 1.36-.822v1.829l-4.111 2.303-4.112 2.304zm57.968-3.893-.257.106v-1.585l4.25-2.434 4.25-2.434h.46v1.492l-4.223 2.374-4.224 2.374zm-23.74-1.227h-.197l.009-.72.009-.72 4.31-2.463 4.312-2.464v1.823l-4.124 2.272-4.123 2.272zm-23.299-1.013-.258.106v-1.575l4.08-2.33 4.08-2.332.24-.127.24-.127-.007.9-.007.898-4.055 2.24-4.054 2.24zm34.238-5.12-.256.106v-1.585l3.28-1.855 3.28-1.854 1.04-.611 1.04-.611-.002.911-.002.912-4.061 2.24-4.062 2.24zm-23.644-1.227h-.337l.103-.672.102-.673 4.073-2.367 4.074-2.368h.653v.72l-.001.72-4.166 2.32-4.165 2.32zm10.828-6.083-.24.003.007-.72.007-.72 4.204-2.4 4.205-2.4.293-.115.293-.115-.104.887-.105.887-4.16 2.345-4.16 2.345z" transform="translate(-12.595 -28.34)"/><path style="fill:#585858" d="m254.548 355.867-4.19 2.426-64.396-37.357-64.396-37.357-.063-.25-.063-.249 38.29-22.336 38.29-22.336 64.59 37.468 64.59 37.467.073.068.073.068-34.305 19.98-34.305 19.981zm-4.175-16.886 5.733-.159 4.347-.74 4.347-.739 4-1.194 4-1.194 3.84-1.844 3.84-1.845 2.1-1.599 2.1-1.598 2.05-2.135 2.05-2.135 1.083-1.98 1.082-1.979.605-1.92.605-1.92.002-4.16.002-4.16-.448-2.24-.448-2.24-1.21-2.24-1.21-2.24-1.942-2.18-1.941-2.179-2.24-1.679-2.24-1.679-1.761-1-1.762-1-2.624-1.123-2.623-1.123-3.775-1.119-3.775-1.119-3.703-.663-3.703-.664-4.665-.296-4.665-.295-4.604.273-4.604.273-3.988.704-3.988.703-4.16 1.266-4.16 1.267-3.55 1.713-3.548 1.713-2.534 1.91-2.534 1.909-1.956 2.2-1.956 2.201-1.215 2.394-1.215 2.393-.41 2.24-.408 2.24-.015 3.68-.014 3.68.592 1.947.592 1.946 1.212 2.214 1.212 2.213 2.114 2.183 2.113 2.184 2.4 1.701 2.4 1.702 1.92.966 1.92.966 1.92.798 1.92.798 3.795 1.15 3.796 1.149 3.884.685 3.885.684 3.2.247 3.2.248zm-64.297-27.187 1.284-.793 1.055-.527 1.055-.527-.095-.802-.095-.803-4.45-2.544-4.45-2.544-1.31.695-1.31.696-1.04.633-1.04.633v1.548l4.556 2.564 4.555 2.563zm5.604-3.674.48-.005 1.92-1.202 1.92-1.201.098-.82.098-.821-4.5-2.578-4.501-2.578-2.238 1.29-2.237 1.29v1.728l4.24 2.45 4.24 2.451zm-28.8-9.249.16.007 3.84-2.198 3.84-2.198 1.6.939 1.6.938.687.337.688.338 3.232-1.83 3.233-1.831v-3.304l-.816-.495-.816-.496 20.408-11.716 20.409-11.716.1-.3.1-.298-2.273-1.35-2.273-1.35-.424.163-.425.163-19.475 11.095-19.475 11.095-.973.593-.972.592-2.996-1.751-2.995-1.752-3.232 1.885-3.232 1.884-.095 1.607-.096 1.608 1.612.93 1.611.93-3.836 2.16-3.836 2.16.001.225.001.225 2.479 1.353 2.48 1.352zm-11.2-12.662 2.08-.157 1.33-.64 1.33-.64.547-1.151.546-1.152-.157-1.39-.156-1.39-.547-.834-.547-.835-1.447-.64-1.447-.64-2.13-.033-2.13-.033-1.489.417-1.488.417-.887.926-.887.925-.139 1.918-.139 1.918.522.796.521.796.981.507.982.508 1.335.282 1.336.282zm12-7.5 2.56-.003 1.28-.59 1.28-.592.758-.823.759-.824-.133-2.088-.133-2.088-.746-.794-.746-.795-1.456-.496-1.457-.496h-3.932l-1.493.508-1.492.51-.805.955-.804.956v3.833l.345.645.346.646 1.654.77 1.655.77zm13.6-7.55 1.76-.173 1.28-.567 1.28-.566.64-.72.64-.72v-3.641l-.587-.896-.587-.896-1.493-.674-1.493-.674h-4.8l-1.147.391-1.147.392-.899.937-.898.938-.155 1.611-.155 1.612.393.948.393.948.847.563.848.564 1.76.399 1.76.398zM120.8 283.84h-.16v-.32h.32v.32zm330.88-41.108-.64.383-56.96-33.067-56.96-33.066-.08-8.891-.078-8.891 30.88-18.001 30.878-18.001 64.4 37.333 64.4 37.333.249.213.249.213-37.85 22.03-37.848 22.03zm-.487-18.954 5.592-.162 4.328-.735 4.327-.735 3.84-1.152 3.84-1.152 2.72-1.188 2.72-1.188 1.534-.893 1.535-.893 2.004-1.52 2.004-1.52 1.935-2.08 1.935-2.08 1.304-2.4 1.303-2.4.503-2.467.503-2.466v-5.243l-.521-2.592-.521-2.592-1.123-2.24-1.122-2.24-2.117-2.374-2.116-2.375-2.555-1.9-2.556-1.902-3.524-1.7-3.525-1.702-4.238-1.296-4.238-1.295-3.922-.67-3.922-.67-4.564-.29-4.563-.291-4.717.304-4.716.304-3.68.654-3.68.653-4.32 1.308-4.32 1.308-3.52 1.696-3.52 1.695-2.72 2.081-2.72 2.081-1.805 2.05-1.805 2.049-1.176 2.334-1.176 2.335-.458 2.606-.46 2.607v6.123l.585 2.229.585 2.228 1.348 2.308 1.348 2.308 2.467 2.494 2.467 2.494 2.388 1.574 2.389 1.575 3.371 1.5 3.372 1.5 3.951 1.177 3.951 1.177 3.57.64 3.568.642 3.52.266 3.52.266zm-64.313-27.225 1.44-.834.878-.5.878-.499-.006-.8-.006-.8-4.232-2.4-4.231-2.4-.38-.1-.38-.1-2.115 1.217-2.114 1.216.094.958.095.958 4.32 2.458 4.32 2.46zm5.6-3.667.32-.086 2.008-1.12 2.008-1.12-.088-.92-.088-.92-4.32-2.491-4.32-2.492-2.24 1.231-2.24 1.231-.092.9-.091.901 4.411 2.486 4.412 2.485zm-28.895-9.225.225.019 3.775-2.208 3.775-2.208 1.76.987 1.76.986.524.316.523.316 3.237-1.833 3.236-1.832v-3.464l-.81-.424-.809-.424 18.65-10.698 18.649-10.698 2.028-1.18 2.027-1.18-1.846-1.182-1.847-1.181-.71-.324-.71-.323-20.59 11.763-20.592 11.764-.32.002-.32.002-2.815-1.67-2.816-1.669-3.264 1.909-3.265 1.91-.092 1.551-.092 1.553 1.623.973 1.624.973-3.852 2.18-3.851 2.182.006.206.006.206 2.474 1.34 2.474 1.342zm-11.265-12.652 2.08-.157 1.369-.659 1.368-.659.507-.98.507-.979-.142-1.702-.14-1.703-.615-.691-.614-.692-1.44-.648-1.44-.65h-4.8l-1.493.666-1.493.665-.547.835-.547.834-.167 1.483-.167 1.484.546 1.014.547 1.015.937.554.937.553 1.364.287 1.363.287zm12.16-7.506 2.4.01 1.655-.77 1.654-.77.346-.645.345-.646v-3.946l-1.055-1.055-1.055-1.055-1.265-.351-1.265-.351-1.943-.002-1.943-.002-1.457.496-1.456.496-.746.794-.746.794-.129 2.026-.129 2.026.915 1.017.914 1.017 1.28.453 1.28.452zm13.28-7.546 1.28-.14 1.357-.35 1.357-.349.81-.809.809-.81.193-.768.193-.77-.163-1.444-.163-1.446-.89-.928-.889-.928-1.147-.392-1.147-.391h-4.8l-1.147.391-1.147.392-.933.973-.933.974v4.051l.64.706.638.707.93.48.93.481 1.471.256 1.471.255z" transform="translate(-12.595 -28.34)"/><path style="fill:#4e4c49" d="m302.8 280.94-.24-.018-3.92-2.26-3.92-2.26v-1.574l.262.106.263.107 3.897 2.22 3.898 2.22v1.48zm11.143-6.802-.183.698-4.071-2.298-4.072-2.298-.009-.72-.009-.72h.558l3.481 2.021 3.481 2.022.503.298.504.299zm-23.436-.916-.107.657-4.24-2.417-4.24-2.418v-1.524h.369l3.896 2.267 3.895 2.268.267.256.267.255zm34.24-5.12-.107.657-4.24-2.417-4.24-2.418V262.4h.334l3.913 2.269 3.913 2.269.267.254.267.254zm-23.547-.593-.24-.01-4.071-2.31-4.072-2.309-.009-.743-.009-.744.423.104.422.103 3.894 2.24 3.894 2.24.004.72.004.72zm-23.68-.977-.24-.027-4-2.331-4-2.331-.105-.876-.104-.875.264.146.265.146 4.08 2.332 4.08 2.332v1.512zm57.92-4.143-.24-.01-4.071-2.31-4.072-2.309-.009-.743-.009-.744.423.104.422.103 3.894 2.24 3.894 2.24.004.72.004.72zm-23.52-.96-.08-.01-4.071-2.31-4.072-2.309-.009-.906-.009-.906 1.04.625 1.04.626 3.12 1.819 3.12 1.82v1.562zm-23.333-1.485-.107.462-4.24-2.431-4.24-2.432v-1.463h.385l4.002 2.304 4.002 2.304.153.397.152.398zm-23.867-.772-.24-.027-4-2.331-4-2.331-.105-.876-.104-.875.264.142.265.142 4.08 2.331 4.08 2.331v1.522zm81.28-2.871-.24-.02-3.92-2.259-3.92-2.26v-1.522h.356l3.982 2.314 3.982 2.314v1.452zm-23.36-1.27-.24-.007-3.92-2.257-3.92-2.257v-1.603l.272.107.272.106 3.887 2.24 3.888 2.24v.72l.001.72zm-23.68-.978-.24-.028-4-2.331-4-2.332-.102-.68-.103-.682h.75l3.968 2.284 3.967 2.284v1.512zm-23.173-1.469-.107.462-4.24-2.431-4.24-2.432v-1.463h.412l3.986 2.298 3.986 2.297.155.404.155.404zm81.36-3.086-.187.698-4.071-2.298-4.072-2.298-.009-.72-.009-.72h.6l3.94 2.287 3.94 2.288.028.032.028.033zm-23.437-.94-.11.68-4.24-2.416-4.24-2.418v-1.524h.341l3.59 2.063 3.589 2.064.59.434.59.435zm-23.683-1.273-.107.638-3.796-2.174-3.796-2.173-.311-.311-.311-.311.107-.666.107-.666 3.799 2.204 3.799 2.204.308.308.308.308zm-23.867-.594-.24-.03-3.92-2.277-3.92-2.277v-1.467h.412l3.954 2.28 3.954 2.278v1.522zm81.787-3.229-.107.657-4.24-2.417-4.24-2.418v-1.524h.369l3.896 2.267 3.895 2.268.267.256.267.255zm-23.547-.593-.24-.01-4.071-2.31-4.072-2.309-.009-.743-.009-.744.417.104.416.103 3.904 2.22 3.903 2.22v1.48zm-23.68-.977-.24-.027-4-2.331-4-2.331-.105-.876-.104-.875.264.142.265.142 4.08 2.331 4.08 2.331v1.522zm-23.493-1.785-.107.464-4-2.3-4-2.298-.105-.9-.104-.901.264.152.265.153 3.786 2.163 3.786 2.163.161.42.161.42zm81.413-2.358-.24-.01-4.071-2.31-4.072-2.309-.009-.743-.009-.744.429.104.428.103 3.891 2.24 3.892 2.24v1.44zm-23.493-1.469-.107.478-4.071-2.3-4.072-2.298-.009-.917-.009-.917.72.463.72.462 3.31 1.865 3.31 1.865.157.41.158.412zm-23.36-.976-.107.462-4.24-2.431-4.24-2.432v-1.463h.404l3.983 2.278 3.982 2.278.163.423.162.424zm-23.867-.772-.24-.027-4-2.331-4-2.331-.105-.876-.104-.877.275.115.275.115 4.07 2.344 4.069 2.344v1.552zm57.92-4.151-.24-.02-3.92-2.259-3.92-2.26v-1.522h.32l4 2.316 4 2.316v1.448zm-23.68-.968-.24-.028-4-2.331-4-2.331-.104-.865-.103-.866.743.391.744.391 3.6 2.06 3.6 2.06v1.546zm-23.176-1.827-.104.764-4.237-2.415-4.237-2.415-.003-.72-.003-.72h.404l4.038 2.293 4.038 2.292.104.078.104.079zm34.243-4.76-.107.465-4-2.3-4-2.298-.105-.9-.104-.901.264.152.265.153 3.786 2.163 3.786 2.163.161.42.161.42zm-23.61-1.472-.177.714-4.078-2.314-4.079-2.314-.002-.754-.002-.754.443.17.442.169 3.814 2.184 3.815 2.185zm10.783-5.382-.08-.027-4-2.331-4-2.331-.105-.885-.106-.885 2.026 1.163 2.025 1.163 2.158 1.2 2.158 1.201.002.88.002.88z" transform="translate(-12.595 -28.34)"/><path style="fill:#484848" d="m184.88 312.63-.08-.011-4.56-2.58-4.56-2.58v-1.219h.372l4.129 2.4 4.128 2.4h.651v1.6zm6.56-4.488-.24-.018-4.24-2.45-4.24-2.45v-1.144h.421l4.27 2.47 4.269 2.47v1.14zm194.08-110.72-.08-.017-4.1-2.338-4.098-2.337-.331-.331-.331-.331.11-.506.11-.505 4.127 2.391 4.126 2.392h.547v1.6zm6.876-4.462h-.244l-4.396-2.48-4.396-2.479v-1.398l4.626 2.619 4.626 2.618.014.56.014.56z" transform="translate(-12.595 -28.34)"/><path style="fill:#414141" d="m249.12 331.35-6.72.105-1.28-.132-1.28-.132-3.2-.499-3.2-.498-3.936-1.128-3.936-1.129-2.509-1.087-2.508-1.087-1.245-.722-1.244-.721-2.071-1.492-2.071-1.492-1.802-2.041-1.801-2.042-1.048-2.066-1.047-2.067-.425-2.214-.425-2.213.363-2.267.364-2.266 1.082-2.176 1.083-2.176 1.814-1.984 1.814-1.984 2.254-1.707 2.254-1.707 3.2-1.535 3.2-1.535 3.84-1.145 3.84-1.146 3.84-.694 3.84-.695 7.04-.006 7.04-.006 4 .705 4 .705 3.36.992 3.36.992 2.489 1.063 2.488 1.063 1.512.87 1.511.87 1.805 1.37 1.805 1.37 1.791 1.849 1.791 1.848 1.249 2.4 1.248 2.4.393 2.24.392 2.24-.363 2.342-.363 2.34-.998 1.98-.998 1.978-1.796 2.048-1.796 2.049-2.08 1.583-2.08 1.583-3.52 1.687-3.52 1.687-3.488 1.028-3.488 1.027-3.552.636-3.552.636zm-.8-18.592 1.76-.153 1.474-.473 1.474-.473.712-.758.712-.758.17-1.26.169-1.26-1.005-1.145-1.005-1.144-1.488-.507-1.487-.507h-4.57l-1.59.472-1.592.473-.94.98-.94.982v2.497l.793.848.793.849.929.483.929.483 1.47.262 1.472.262zm201.6-96.611-6.56.105-1.44-.14-1.44-.14-3.724-.628-3.725-.627-3.795-1.15-3.796-1.15-3.2-1.523-3.2-1.522-2.096-1.566-2.096-1.566-1.965-2.132-1.965-2.131-.985-1.951-.985-1.951-.442-2.317-.443-2.318.433-2.486.433-2.487 1.041-1.953 1.042-1.954 1.774-1.976 1.774-1.977 2.24-1.689 2.24-1.688 3.2-1.537 3.2-1.536 3.84-1.146 3.84-1.146 3.84-.699 3.84-.699 7.2-.006 7.2-.006 4 .731 4 .731 3.68 1.108 3.68 1.108 3.232 1.553 3.232 1.553 2.243 1.7 2.242 1.7 1.747 1.92 1.747 1.92 1.167 2.113 1.168 2.112.372 2.252.372 2.253-.225 2.101-.225 2.102-1.217 2.494-1.217 2.493-1.797 1.969-1.798 1.968-2.161 1.594-2.162 1.594-1.6.817-1.6.818-1.776.774-1.777.775-3.471 1.032-3.472 1.032-3.552.635-3.552.634zm-.8-18.6 1.6-.158 1.158-.296 1.158-.295.881-.693.88-.692.445-1.065.445-1.064-.564-1.202-.563-1.202-1.6-.8-1.6-.8h-6.72l-1.262.662-1.262.662-.642.86-.642.86v2.219l.784.839.784.839.865.45.865.45 1.695.291 1.695.292z" transform="translate(-12.595 -28.34)"/><path style="fill:#393939" d="m250 372.46-.24-.02-64.32-37.34-64.32-37.342-.086-7.268-.086-7.268 4.263 2.469 4.264 2.469 60.382 35.031 60.383 35.031v14.258zm200.64-115.21-.24-.03-4.48-2.64-4.48-2.642-8.41-4.883-8.412-4.883.303-.366.303-.366-44.132-25.439-44.132-25.439v-13.665l1.04.606 1.04.607 55.92 32.43 55.92 32.43v14.31z" transform="translate(-12.595 -28.34)"/><path style="fill:#373737" d="m151.642 284.29-2.042.156-1.381-.29-1.381-.29-1.079-.666-1.078-.667-.35-1.06-.35-1.06.295-.767.296-.766.754-.68.754-.681 1.28-.411 1.28-.41 2.27.014 2.27.014 1.463.647 1.463.647.56.855.56.855v1.875l-.773.839-.773.838-.998.426-.998.426zm11.878-7.506-2.08-.012-1.28-.453-1.28-.452-.88-.979-.88-.978v-1.86l.804-.957.805-.956 1.492-.508 1.493-.509h3.932l1.457.496 1.456.497.693.737.693.738.188 1.158.188 1.157-1.096 1.095-1.095 1.096-1.265.351-1.265.351zm13.92-7.578-1.6.146-.8-.123-.8-.124-1.333-.346-1.332-.347-.892-.93-.891-.93v-2.223l.917-.957.917-.957.987-.31.987-.31 1.482-.208 1.482-.208 1.778.369 1.779.37 1.037.7 1.038.702.404.994.404.994-.542 1.086-.542 1.086-1.44.69-1.44.689zm57.68-24.516-.24.148v-93.731l6.48-3.718 6.48-3.717.428 2.004.428 2.004 1.236 4.976 1.236 4.976 1.81 5.584 1.81 5.584 1.447 3.68 1.448 3.68 1.92 4.16 1.92 4.16 2.084 3.68 2.084 3.68 1.605 2.4 1.605 2.4 1.616 2.08 1.616 2.08 2.524 2.796 2.525 2.796 3.321 2.665 3.321 2.665 2.102 1.23 2.102 1.228-.254.241-.254.24-26.08 14.941-26.08 14.94zm117.346-75.615-1.906.162-1.481-.267-1.481-.266-.6-.323-.598-.322-.773-.827-.774-.827v-1.875l.56-.855.561-.855 1.493-.665 1.493-.665h4.8l1.44.649 1.44.648.624.702.624.703v2.19l-.784.85-.784.85-.974.416-.974.415zm11.694-7.502-2.08-.024-1.352-.478-1.351-.479-.84-.998-.84-.999.179-1.103.179-1.104.693-.738.693-.737 1.456-.497 1.457-.496 1.943.002 1.943.002 1.265.351 1.265.351 1.055 1.055 1.055 1.055v2.048l-1.055 1.055-1.055 1.055-1.265.352-1.265.35zm13.6-7.536-1.28.141-1.471-.255-1.471-.256-.93-.48-.93-.481-.623-.69-.623-.688v-2.2l.917-.956.917-.957 1.147-.392 1.147-.391h4.8l1.147.391 1.147.392.917.957.917.957v2.222l-.891.93-.892.931-1.332.342-1.333.342z" transform="translate(-12.595 -28.34)"/><path style="fill:#2c2b2a" d="m303.25 279.662-.05-.019-3.796-2.194-3.797-2.194-.286-.286-.286-.286 3.923-2.221 3.922-2.222h.96l3.905 2.24 3.905 2.238-.225.217-.225.218-3.95 2.263-3.95 2.264zm10.935-6.397-.425-.015-3.04-1.782-3.04-1.783-.995-.538-.995-.538 4.277-2.445 4.277-2.444 4.39 2.54 4.391 2.54h-.745l-3.835 2.24-3.836 2.24zm-23.646-.95-.139-.005-.96-.596-.96-.596-3.148-1.834-3.147-1.833 4.194-2.39 4.193-2.39.257.105.256.104 3.897 2.22 3.898 2.221-.009.18-.009.18-4.092 2.32-4.092 2.32zm34.249-5.12-.148-.005-.96-.592-.96-.592-3.155-1.834-3.154-1.833 4.2-2.394 4.201-2.394.261.105.26.104 3.89 2.24 3.89 2.24-.003.16-.003.16-4.085 2.32-4.085 2.32zm-19.547-3.176-3.718 2.155-4.122-2.397-4.121-2.398-.067-.063-.067-.063 3.969-2.307 3.969-2.306h.797l4.085 2.315 4.086 2.315-.546.297-.546.296zm-27.5.94h-.141l-4.117-2.368-4.116-2.368.756-.472.757-.473 3.437-1.987 3.438-1.987 4.01 2.312 4.011 2.312.128.206.128.207-4.076 2.31-4.075 2.309zm58.735-4.281-.644.416-4.156-2.417-4.156-2.418-.076-.072-.075-.071 3.899-2.218 3.9-2.218.43-.106.43-.106 4.127 2.338 4.127 2.339-.061.043-.061.044-3.52 2.015-3.52 2.014zm-24.377-.853-.259-.015-3.92-2.3-3.92-2.299.003-.165.003-.166 3.917-2.24 3.918-2.24h.64l3.92 2.22 3.92 2.22v.397l-3.982 2.302-3.981 2.301zm-23.514-.97-.105-.026-4.099-2.41-4.098-2.409.098-.097.099-.097 3.95-2.268 3.95-2.268h.583l4.015 2.288 4.014 2.288-.256.244-.256.245-3.895 2.268-3.896 2.267zm-23.512-1.258-.273-.003-4.102-2.363-4.102-2.364 4.243-2.418 4.243-2.417 1.94 1.11 1.938 1.112 2.158 1.193 2.158 1.193.002.196.002.196-3.968 2.284-3.967 2.284zm81.387-2.57-.06-.013-3.84-2.255-3.84-2.255-.256-.244-.256-.244 4.014-2.288 4.015-2.288h.584l3.95 2.268 3.949 2.268.098.097.098.097-4.198 2.435-4.198 2.435zm-23.266-1.402-.166.082-4.213-2.436-4.213-2.436 4.195-2.39 4.195-2.39 1.624.859 1.624.86 2.66 1.542 2.66 1.543-4.1 2.342-4.1 2.343zm-23.882-1.145h-.285l-3.833-2.23-3.834-2.23-.48-.014-.48-.013 4.473-2.545 4.473-2.545.967.568.967.568 3.283 1.856 3.284 1.856-4.125 2.365-4.124 2.364zm-23.484-.988-.148-.027-3.914-2.293-3.915-2.292-.006-.2-.006-.202 3.954-2.279 3.954-2.279h.416l3.998 2.279 3.998 2.278-.007.202-.007.201-4.085 2.32-4.085 2.32zm81.55-2.863-.418-.01-2.72-1.623-2.72-1.622-1.316-.702-1.316-.702 4.276-2.444 4.276-2.444 4.275 2.444 4.275 2.443-1.155.612-1.155.611-2.942 1.724-2.942 1.724zm-23.656-.958-.122-.009-1.76-1.069-1.76-1.069-2.352-1.355-2.351-1.355 4.197-2.392 4.198-2.392.257.105.256.105 3.884 2.212 3.884 2.213-.153.247-.153.247-3.951 2.26-3.952 2.26zm-23.482-1.375-.32.056-3.914-2.296-3.915-2.296-.006-.201-.006-.202 3.999-2.278 3.998-2.279h.327l3.998 2.279 3.998 2.278-.003.202-.003.201-3.917 2.24-3.917 2.24zM288 244.523l-1.44.816-4.2-2.444-4.201-2.444 3.88-2.225L285.92 236l.53-.098.53-.099 4.047 2.307 4.049 2.308-2.818 1.644-2.818 1.645zm79.979-1.968-.139-.005-.96-.596-.96-.596-3.148-1.834-3.147-1.833 4.194-2.39 4.193-2.39.257.105.256.104 3.897 2.22 3.898 2.221-.009.18-.009.18-4.092 2.32-4.092 2.32zm-19.513-3.199-3.693 2.143-3.827-2.202-3.826-2.203-.425-.254-.426-.254 4.024-2.293 4.024-2.293h.764l4.085 2.315 4.086 2.315-.546.292-.546.291zm-27.518.96-.148-.004-4.07-2.316-4.07-2.316-.002-.16-.002-.16 4.152-2.339 4.151-2.338 4.152 2.338 4.152 2.339v.16l.002.16-4.086 2.32-4.085 2.32zm-23.542-1.31-.286-.034-3.915-2.286-3.915-2.286-.004-.16-.004-.16 4.13-2.338 4.13-2.337 4.029 2.296 4.029 2.296v.485l-3.954 2.279-3.954 2.279zm85.756-5.01-4.197 2.402-4.123-2.392-4.122-2.39-.066-.06-.066-.06 3.986-2.309 3.986-2.307h.761l4.08 2.312 4.08 2.313-.06.045-.061.045zm-27.864 1.175-.258-.03-3.92-2.277-3.92-2.277v-.386l3.92-2.22 3.92-2.221h.64l3.92 2.22 3.92 2.22v.372l-3.982 2.314-3.982 2.314zm-23.531-.964-.087-.032-3.906-2.3-3.906-2.3-.17-.17-.17-.17 3.9-2.217 3.9-2.218.386-.098.387-.098 4.046 2.306 4.045 2.306-.256.243-.256.243-3.913 2.269-3.913 2.269zm-23.508-1.255-.259-.008-3.92-2.257-3.92-2.257.006-.215.006-.215 4.037-2.314 4.036-2.315 4.11 2.315 4.109 2.314.008.179.008.179-3.981 2.301-3.982 2.301zm58.141-3.976-.16.079-4.207-2.436-4.207-2.436 4.047-2.322 4.047-2.322.359-.01.358-.01 3.482 2.022 3.481 2.021.58.323.581.323-4.1 2.343-4.101 2.344zm-23.887-1.146-.273-.01-4.105-2.355-4.105-2.355 4.246-2.42 4.246-2.419 1.94 1.111 1.938 1.111 2.158 1.194 2.158 1.193.002.196.002.196-3.968 2.284-3.967 2.284zm-21.402-2.08-1.93 1.11-4.255-2.426-4.256-2.425 3.625-2.078 3.625-2.08.688-.322.689-.323 4.031 2.321 4.032 2.321-.002.196-.002.196-2.158 1.2-2.158 1.2zm32.15-4.024-.141-.034-3.915-2.286-3.915-2.286-.005-.196-.005-.196 3.967-2.284 3.968-2.284h.388l3.999 2.279 3.998 2.278v.202l-.002.201-4.098 2.32-4.099 2.32zm-23.436-1.256-.385-.01-4.067-2.333-4.068-2.334 4.19-2.376 4.191-2.377.355.105.354.106 3.928 2.262 3.929 2.261-.086.072-.086.072-3.935 2.28-3.936 2.282zm10.928-6.071-.113-.001-4.072-2.319-4.073-2.319-.007-.16-.007-.16 4.15-2.349 4.15-2.35 4.01 2.294 4.008 2.293v.504l-3.967 2.284-3.968 2.284z" transform="translate(-12.595 -28.34)"/><path style="fill:#2a2a2a" d="m251.114 372.32-.886.523.086-7.278.086-7.278 38.368-22.343 38.369-22.344h.555l-.086 7.105-.086 7.106-37.76 21.993L252 371.798zm-3.855-61.933-1.019-.013-.88-.477-.88-.477v-1.48l.597-.541.597-.54 1.427-.03 1.426-.028.697.221.697.221.33.619.332.618-.351.655-.35.656-.802.304-.802.305zm204.077-53.162-.468.104.086-7.107.086-7.107 38.393-22.358 38.392-22.357h.495l-.016 7.12-.015 7.12-38.243 22.24-38.242 22.24zM310.063 201.72l-21.937 12.571-2.223-1.353-2.223-1.353-3.16-2.513-3.161-2.513-2.615-2.88-2.615-2.88-1.614-2.08-1.614-2.08-1.605-2.4-1.605-2.4-2.084-3.68-2.084-3.68-1.92-4.16-1.92-4.16-1.448-3.68-1.448-3.68-1.81-5.584-1.81-5.584-1.242-4.976-1.243-4.976-.384-2.01-.385-2.01.123-.095.124-.095 40.96-23.453 40.96-23.453 1.041-.629 1.041-.629-.081 46.922L332 189.15zm138.51-6.638-1.373.127-1.04-.47-1.04-.47v-1.529l.626-.566.626-.567h3.228l.8.524.8.525v1.166l-.627.567-.627.568z" transform="translate(-12.595 -28.34)"/><path style="fill:#192632" d="m246.16 554.21-.24-.03-6.485-3.648-6.485-3.648-61.835-35.793-61.835-35.794-5.68-3.15-5.68-3.15v-156.37l1.68.975 1.68.974 4.56 2.618 4.56 2.618.003 18.254.003 18.254 61.732 76.792 61.732 76.792.397.132.398.133-.212-15.457-.213-15.457v-76.569l-55.674-31.343L122.89 340l-.006-6.498-.006-6.498 1.24.738 1.242.738 60.51 34.88 60.51 34.88.01 78 .008 78zm-12.485-23.995.236.025-7.45-9.2-7.45-9.2-53.71-66.4-53.71-66.4-.595-.631-.596-.631v80.963l61.52 35.724 61.52 35.724zM529.04 389.74l-.24-.02-7.52-4.231-7.52-4.231-48.32-27.96-48.32-27.962-.257-.22-.257-.222 7.285-4.227 7.285-4.228.652.299.652.298 42.028 24.387 42.029 24.387.085-.105.085-.105-27.153-33.527-27.154-33.527v-.255l5.624-3.265 5.625-3.265.246.28.247.279 21.513 26.8 21.513 26.8h.22l-.164-39.76-.166-39.76 4.24-2.4 4.24-2.4 1.871-1.07 1.871-1.068V389.76Z" transform="translate(-12.595 -28.34)"/><path style="fill:#202020" d="m185.2 312.267-.24.106v-1.197l2.066-1.188 2.066-1.188h.348l-.004.56-.004.56-1.996 1.12-1.996 1.12zm6.617-4.107h-.137v-1.225l2.104-1.177 2.104-1.176.176.175.175.175-.168.438-.168.438-1.974 1.176-1.975 1.176zm-40.137-21.951-2.08.157-1.336-.282-1.335-.282-.965-.5-.965-.498-.5-.713-.499-.713.013-1.29.012-1.288.433.995.433.995 1.5.726 1.501.727 2.294.038 2.294.039 1.19-.253 1.191-.253 1-.84 1-.842.269-.666.27-.666.02.912.02.911-.51 1.074-.51 1.075-1.33.64-1.33.64zm11.93-7.492-2.49-.003-1.655-.77-1.654-.77-.346-.646-.345-.646v-1.898l1.055 1.055 1.055 1.055 1.265.351 1.265.352h3.84l1.265-.352 1.265-.35 1.055-1.056 1.055-1.055v2.056l-.88.843-.88.843-1.19.497-1.19.497zm13.67-7.558-1.76.174-1.76-.399-1.76-.398-.83-.553-.831-.552-.37-.81-.369-.811.02-1.025.02-1.025.265.64.265.64.755.68.755.681 1.28.411 1.28.41 2.314-.014 2.315-.015 1.525-.756 1.526-.757.587-1.12.588-1.12-.15 1.533-.15 1.533-.597.673-.598.674-1.28.566-1.28.567zm208.502-74.039h-.182v-1.132l1.994-1.114 1.994-1.114.246-.107.246-.106-.006.586-.006.587-2.052 1.2-2.053 1.2zm8.908-5.373-2.091 1.187.1-.686.101-.687 1.76-1.048 1.76-1.048.24-.013.24-.012-.01.56-.01.56zm-42.37-20.738-2.08.157-1.363-.287-1.364-.287-.913-.54-.913-.539-.524-.886-.523-.886.02-1.07.02-1.071.27.666.27.666 1 .841.999.842 1.19.233 1.191.233 1.76.015 1.76.016 1.19-.249 1.191-.248 1-.842 1-.84.269-.667.27-.666.02 1.056.02 1.056-.471.911-.471.912-1.37.658-1.368.66zm12.16-7.506-2.4-.011-1.28-.453-1.28-.452-.88-.979-.88-.978v-1.96l.804.957.805.956 1.492.508 1.493.509 1.943-.002 1.943-.002 1.265-.351 1.265-.351 1.055-1.055 1.055-1.055v1.898l-.345.645-.346.646-1.654.77-1.655.77zm12.16-7.382-.16-.036-1.471-.25-1.471-.248-.93-.48-.93-.481-.586-.648-.586-.648-.14-1.385-.14-1.385.289.64.29.64.609.548.61.548 1.266.529 1.267.53 2.242.014 2.241.014 1.28-.41 1.28-.412.755-.68.755-.68.265-.64.264-.64.02 1.07.021 1.07-.546.925-.546.924-1.06.503-1.06.502-1.834.3-1.834.301z" transform="translate(-12.595 -28.34)"/><path style="fill:#0d151b" d="M246.711 554.24h-.311V398.498l6.16-3.565 6.16-3.565.196 14.156.196 14.156.044 63.892.044 63.892-6.089 3.388-6.089 3.388zm-13.037-24.025-.234-.026-61.52-35.724-61.52-35.724v-80.963l.595.63.594.632 5.566 6.88 5.565 6.88.16 29.596.16 29.595 44.098 25.125 44.099 25.124 2.47 3.04 2.469 3.04 8.866 10.96 8.866 10.96zm.612-20.135h-.274l-61.803-76.88-61.802-76.88-.004-18.16L110.4 320h.282l6.019 3.48 6.019 3.479.085 11.32.084 11.321 55.818 70.08 55.819 70.08.017 10.16.017 10.16zm295.283-120.053-.289.106.044-63.786.044-63.787.196-14.192.196-14.192 5.92-3.475 5.92-3.474.24-.013.24-.014-.01 78-.008 78-6.102 3.36-6.103 3.36zm-13.01-24.283-.239-.017-42.332-24.582-42.332-24.582-.123-.123-.123-.123 6.176-3.603 6.176-3.604 25.224 14.368 25.225 14.369 6.831 8.436 6.831 8.437 4.462 5.52 4.461 5.52zm.745-19.824h-.137l-21.471-26.715-21.472-26.714-.17-.446-.172-.445 5.655-3.272 5.656-3.273.426.433.425.432 15.683 19.68 15.683 19.68.015 10.32.015 10.32z" transform="translate(-12.595 -28.34)"/><path style="fill:#05090b" d="m259.116 416.315-.243.005.083-12.871.084-12.871 135.04-78.474 135.04-78.473.244-.016.243-.015-.083 12.864-.084 12.865-135.04 78.49-135.04 78.49zm17.79-20.155h1.044l5.57-3.28 5.571-3.28.93-1.324.93-1.324.15-1.396.15-1.396-.46-.613-.46-.614-.926.01-.925.01-5.28 3.115-5.28 3.114-.717.662-.717.662-.643 1.328-.643 1.328v1.76l.331.62.332.618zm108.068-61.575.815-.143 5.425-3.178 5.426-3.178 1.04-1.52 1.04-1.518v-3l-.384-.384-.384-.384h-1.656l-5.268 3.063-5.268 3.064-1.142 1.232-1.142 1.233-.387 1.292-.387 1.291.205.817.204.816.525.32.524.319zm116.237-69 1.029-.015 5.6-3.31 5.6-3.31.906-1.443.906-1.443.171-1.275.171-1.275-.705-.705-.704-.704-.853.21-.852.21-5.136 3.014-5.135 3.013-.704.656-.704.656-.64 1.255-.641 1.256v1.987l.331.619.332.619z" transform="translate(-12.595 -28.34)"/></svg>