<svg width="94062.761" height="58828.125" viewBox="0 0 94062.761 58828.125" xmlns="http://www.w3.org/2000/svg">
    <g id="svgGroup" stroke-linecap="round" fill-rule="evenodd" font-size="9pt" stroke="#000000" stroke-width="0.25mm"
        fill="#9c8888" style="stroke:#000000;stroke-width:0.25mm;fill:#9c8888">
        <path
            d="M 50234.636 859.375 L 94062.761 859.375 L 94062.761 7265.625 L 76875.261 7265.625 L 76875.261 58437.5 L 67422.136 58437.5 L 67422.136 7265.625 L 50234.636 7265.625 L 50234.636 859.375 Z M 22109.636 0 L 22109.636 7812.5 Q 19531.511 8203.125 17265.886 9570.313 Q 15000.261 10937.5 13281.511 13515.625 A 16642.73 16642.73 0 0 0 11833.261 16233.025 Q 11104.997 17943.115 10586.198 20039.063 Q 9746.965 23429.565 9571.25 27887.468 A 59766.503 59766.503 0 0 0 9531.511 29375 A 54475.72 54475.72 0 0 0 9743.264 33560.486 Q 9924.146 35533.733 10254.733 37246.622 A 28356.678 28356.678 0 0 0 10586.198 38750 Q 11562.761 42656.25 13281.511 45312.5 Q 15000.261 47968.75 17304.948 49375 A 12332.706 12332.706 0 0 0 20871.843 50869.141 A 11403.915 11403.915 0 0 0 22109.636 51093.75 L 22109.636 58750 A 22800.934 22800.934 0 0 1 14402.39 56915.483 A 21661.569 21661.569 0 0 1 13320.573 56406.25 Q 9297.136 54375 6328.386 50703.125 A 24390.432 24390.432 0 0 1 3257.44 45750.618 A 31947.544 31947.544 0 0 1 1679.948 41679.688 A 35256.819 35256.819 0 0 1 381.738 35638.463 Q 6.221 32734.69 0.354 29478.461 A 57417.507 57417.507 0 0 1 0.261 29375 Q 0.261 22656.136 1568.673 17469.208 A 29907.354 29907.354 0 0 1 1679.948 17109.375 A 30960.48 30960.48 0 0 1 3681.901 12207.031 A 24031.468 24031.468 0 0 1 6328.386 8125 Q 9297.136 4453.125 13320.573 2421.875 A 23461.823 23461.823 0 0 1 21664.489 40.226 A 26729.347 26729.347 0 0 1 22109.636 0 Z M 40000.261 6171.875 L 33515.886 11953.125 A 14796.662 14796.662 0 0 0 31690.31 10199.647 A 11267.955 11267.955 0 0 0 29687.761 8906.25 Q 27656.511 7890.625 25312.761 7734.375 L 25312.761 0 A 23116.765 23116.765 0 0 1 33787.52 1923.725 A 21338.405 21338.405 0 0 1 40000.261 6171.875 Z M 25312.761 58828.125 L 25312.761 51093.75 Q 27656.511 50859.375 29726.823 49843.75 A 11618.204 11618.204 0 0 0 32521.28 47899.475 A 14242.57 14242.57 0 0 0 33515.886 46875 L 40000.261 52578.125 Q 37031.511 55468.75 33359.636 57031.25 A 22923.998 22923.998 0 0 1 27061.094 58678.112 A 26979.398 26979.398 0 0 1 25312.761 58828.125 Z" />
    </g>
</svg>